{
  "accessors": [
    {
      "bufferView": 2,
      "componentType": 5126,
      "count": 1274,
      "max": [
        2.0999999046325684,
        2.4000000953674316,
        0
      ],
      "min": [
        -2.0999999046325684,
        -6.599999904632568,
        -4.199999809265137
      ],
      "type": "VEC3",
      "byteOffset": 0
    },
    {
      "bufferView": 2,
      "byteOffset": 15288,
      "componentType": 5126,
      "count": 1274,
      "max": [
        1,
        1,
        1
      ],
      "min": [
        -1,
        -1,
        -1
      ],
      "type": "VEC3"
    },
    {
      "bufferView": 1,
      "componentType": 5126,
      "count": 1274,
      "max": [
        0.28710898756980896,
        0.5
      ],
      "min": [
        0.0019531298894435167,
        0.5
      ],
      "type": "VEC2",
      "byteOffset": 0
    },
    {
      "bufferView": 0,
      "componentType": 5125,
      "count": 3582,
      "type": "SCALAR",
      "byteOffset": 0
    },
    {
      "bufferView": 2,
      "byteOffset": 30576,
      "componentType": 5126,
      "count": 1052,
      "max": [
        -0.09999989718198776,
        -1.2999999523162842,
        -0.699999988079071
      ],
      "min": [
        -1.2000000476837158,
        -6.599999904632568,
        -4.900000095367432
      ],
      "type": "VEC3"
    },
    {
      "bufferView": 2,
      "byteOffset": 43200,
      "componentType": 5126,
      "count": 1052,
      "max": [
        1,
        1,
        1
      ],
      "min": [
        -1,
        -1,
        -1
      ],
      "type": "VEC3"
    },
    {
      "bufferView": 1,
      "byteOffset": 10192,
      "componentType": 5126,
      "count": 1052,
      "max": [
        0.30273398756980896,
        0.5
      ],
      "min": [
        0.28320300579071045,
        0.5
      ],
      "type": "VEC2"
    },
    {
      "bufferView": 0,
      "byteOffset": 14328,
      "componentType": 5125,
      "count": 3000,
      "type": "SCALAR"
    },
    {
      "bufferView": 2,
      "byteOffset": 55824,
      "componentType": 5126,
      "count": 383,
      "max": [
        -1.899999976158142,
        2.200000047683716,
        -0.4000000059604645
      ],
      "min": [
        -1.899999976158142,
        -3,
        -4
      ],
      "type": "VEC3"
    },
    {
      "bufferView": 2,
      "byteOffset": 60420,
      "componentType": 5126,
      "count": 383,
      "max": [
        1,
        0,
        0
      ],
      "min": [
        1,
        0,
        0
      ],
      "type": "VEC3"
    },
    {
      "bufferView": 1,
      "byteOffset": 18608,
      "componentType": 5126,
      "count": 383,
      "max": [
        0.21679699420928955,
        0.5
      ],
      "min": [
        0.06445310264825821,
        0.5
      ],
      "type": "VEC2"
    },
    {
      "bufferView": 0,
      "byteOffset": 26328,
      "componentType": 5125,
      "count": 714,
      "type": "SCALAR"
    }
  ],
  "asset": {
    "extras": {
      "author": "Diego G. (https://sketchfab.com/empty_mirror)",
      "license": "CC-BY-4.0 (http://creativecommons.org/licenses/by/4.0/)",
      "source": "https://sketchfab.com/3d-models/voxel-web-development-50ad959d6c6b4799806c45bfa46ca550",
      "title": "Voxel Web Development"
    },
    "generator": "Sketchfab-12.67.0",
    "version": "2.0"
  },
  "bufferViews": [
    {
      "buffer": 0,
      "byteLength": 29184,
      "name": "floatBufferViews",
      "target": 34963,
      "byteOffset": 0
    },
    {
      "buffer": 0,
      "byteLength": 21672,
      "byteOffset": 29184,
      "byteStride": 8,
      "name": "floatBufferViews",
      "target": 34962
    },
    {
      "buffer": 0,
      "byteLength": 65016,
      "byteOffset": 50856,
      "byteStride": 12,
      "name": "floatBufferViews",
      "target": 34962
    },
    {
      "buffer": 0,
      "byteOffset": 115872,
      "byteLength": 317
    }
  ],
  "buffers": [
    {
      "name": "web",
      "byteLength": 116192,
      "uri": "data:application/octet-stream;base64,"
    }
  ],
  "extensionsUsed": [
    "KHR_materials_clearcoat",
    "KHR_materials_transmission"
  ],
  "images": [
    {
      "name": "palette_baseColor",
      "bufferView": 3,
      "mimeType": "image/png"
    }
  ],
  "materials": [
    {
      "doubleSided": true,
      "name": "palette",
      "pbrMetallicRoughness": {
        "baseColorTexture": {
          "index": 0,
          "texCoord": 0
        },
        "metallicFactor": 0,
        "roughnessFactor": 0.395455,
        "baseColorFactor": [
          1,
          1,
          1,
          1
        ]
      },
      "emissiveFactor": [
        0,
        0,
        0
      ],
      "alphaMode": "OPAQUE"
    },
    {
      "alphaMode": "BLEND",
      "doubleSided": true,
      "emissiveFactor": [
        0.043269499999999995,
        0.07480540000000001,
        0.09999999999999998
      ],
      "extensions": {
        "KHR_materials_clearcoat": {
          "clearcoatFactor": 1,
          "clearcoatRoughnessFactor": 0.04
        },
        "KHR_materials_transmission": {
          "transmissionFactor": 0.4693148860879558
        }
      },
      "name": "palette.001",
      "pbrMetallicRoughness": {
        "baseColorFactor": [
          1,
          1,
          1,
          0.5306851139120442
        ],
        "baseColorTexture": {
          "index": 0,
          "texCoord": 0
        },
        "metallicFactor": 0,
        "roughnessFactor": 0.43340234329873717
      }
    },
    {
      "doubleSided": true,
      "emissiveFactor": [
        0.036560037747256476,
        0.05562521455961581,
        0.06914699123288037
      ],
      "name": "palette.002",
      "pbrMetallicRoughness": {
        "baseColorTexture": {
          "index": 0,
          "texCoord": 0
        },
        "roughnessFactor": 0.677273,
        "baseColorFactor": [
          1,
          1,
          1,
          1
        ],
        "metallicFactor": 1
      },
      "alphaMode": "OPAQUE"
    }
  ],
  "meshes": [
    {
      "name": "Object_0",
      "primitives": [
        {
          "attributes": {
            "NORMAL": 1,
            "POSITION": 0,
            "TEXCOORD_0": 2
          },
          "indices": 3,
          "material": 0,
          "mode": 4
        }
      ]
    },
    {
      "name": "Object_1",
      "primitives": [
        {
          "attributes": {
            "NORMAL": 5,
            "POSITION": 4,
            "TEXCOORD_0": 6
          },
          "indices": 7,
          "material": 1,
          "mode": 4
        }
      ]
    },
    {
      "name": "Object_2",
      "primitives": [
        {
          "attributes": {
            "NORMAL": 9,
            "POSITION": 8,
            "TEXCOORD_0": 10
          },
          "indices": 11,
          "material": 2,
          "mode": 4
        }
      ]
    }
  ],
  "nodes": [
    {
      "children": [
        1
      ],
      "matrix": [
        1,
        0,
        0,
        0,
        0,
        2.220446049250313e-16,
        -1,
        0,
        0,
        1,
        2.220446049250313e-16,
        0,
        0,
        0,
        0,
        1
      ],
      "name": "Sketchfab_model"
    },
    {
      "children": [
        2
      ],
      "name": "root"
    },
    {
      "children": [
        3,
        5,
        7
      ],
      "matrix": [
        1,
        0,
        0,
        0,
        0,
        2.220446049250313e-16,
        1,
        0,
        0,
        -1,
        2.220446049250313e-16,
        0,
        0,
        0,
        0,
        1
      ],
      "name": "GLTF_SceneRootNode"
    },
    {
      "children": [
        4
      ],
      "matrix": [
        1,
        0,
        0,
        0,
        0,
        -1.685873969314855e-7,
        0.9999999999999858,
        0,
        0,
        -0.9999999999999858,
        -1.685873969314855e-7,
        0,
        0,
        0,
        0,
        1
      ],
      "name": "laptop_0"
    },
    {
      "mesh": 0,
      "name": "Object_4"
    },
    {
      "children": [
        6
      ],
      "matrix": [
        1,
        0,
        0,
        0,
        0,
        -1.685873969314855e-7,
        0.9999999999999858,
        0,
        0,
        -0.9999999999999858,
        -1.685873969314855e-7,
        0,
        0,
        0,
        0,
        1
      ],
      "name": "laptop.001_1"
    },
    {
      "mesh": 1,
      "name": "Object_6"
    },
    {
      "children": [
        8
      ],
      "matrix": [
        1,
        0,
        0,
        0,
        0,
        -1.685873969314855e-7,
        0.9999999999999858,
        0,
        0,
        -0.9999999999999858,
        -1.685873969314855e-7,
        0,
        0,
        0,
        0,
        1
      ],
      "name": "laptop.002_2"
    },
    {
      "mesh": 2,
      "name": "Object_8"
    }
  ],
  "samplers": [
    {
      "magFilter": 9729,
      "minFilter": 9987,
      "wrapS": 10497,
      "wrapT": 10497
    }
  ],
  "scene": 0,
  "scenes": [
    {
      "name": "Sketchfab_Scene",
      "nodes": [
        0
      ]
    }
  ],
  "textures": [
    {
      "sampler": 0,
      "source": 0
    }
  ]
}
