{
  "accessors": [
    {
      "bufferView": 2,
      "componentType": 5126,
      "count": 37390,
      "max": [
        5.0055975914001465,
        5.576054573059082,
        0.4154217541217804
      ],
      "min": [
        -4.984510898590088,
        -5.576054573059082,
        0.038673363626003265
      ],
      "type": "VEC3",
      "byteOffset": 0
    },
    {
      "bufferView": 2,
      "byteOffset": 448680,
      "componentType": 5126,
      "count": 37390,
      "max": [
        1,
        1,
        1
      ],
      "min": [
        -1,
        -1,
        -1
      ],
      "type": "VEC3"
    },
    {
      "bufferView": 1,
      "componentType": 5126,
      "count": 37390,
      "max": [
        1.0411587953567505,
        1.0000003576278687
      ],
      "min": [
        0,
        0.010013577528297901
      ],
      "type": "VEC2",
      "byteOffset": 0
    },
    {
      "bufferView": 0,
      "componentType": 5125,
      "count": 58944,
      "type": "SCALAR",
      "byteOffset": 0
    }
  ],
  "asset": {
    "extras": {
      "author": "xenadus (https://sketchfab.com/xenadus)",
      "license": "CC-BY-4.0 (http://creativecommons.org/licenses/by/4.0/)",
      "source": "https://sketchfab.com/3d-models/react-logo-76174ceeba96487f9863f974636f641e",
      "title": "React logo"
    },
    "generator": "Sketchfab-15.8.0",
    "version": "2.0"
  },
  "bufferViews": [
    {
      "buffer": 0,
      "byteLength": 235776,
      "name": "floatBufferViews",
      "target": 34963,
      "byteOffset": 0
    },
    {
      "buffer": 0,
      "byteLength": 299120,
      "byteOffset": 235776,
      "byteStride": 8,
      "name": "floatBufferViews",
      "target": 34962
    },
    {
      "buffer": 0,
      "byteLength": 897360,
      "byteOffset": 534896,
      "byteStride": 12,
      "name": "floatBufferViews",
      "target": 34962
    }
  ],
  "buffers": [
    {
      "name": "react",
      "byteLength": 1432256,
      "uri": "data:application/octet-stream;base64,"
    }
  ],
  "materials": [
    {
      "doubleSided": true,
      "emissiveFactor": [
        0.023907400000000002,
        0.1402202,
        0.19293720000000003
      ],
      "name": "Material.002",
      "pbrMetallicRoughness": {
        "baseColorFactor": [
          0.119537,
          0.701101,
          0.964686,
          1
        ],
        "metallicFactor": 0,
        "roughnessFactor": 0.86662048367891
      },
      "alphaMode": "OPAQUE"
    }
  ],
  "meshes": [
    {
      "name": "React-Logo_Material.002_0",
      "primitives": [
        {
          "attributes": {
            "NORMAL": 1,
            "POSITION": 0,
            "TEXCOORD_0": 2
          },
          "indices": 3,
          "material": 0,
          "mode": 4
        }
      ]
    }
  ],
  "nodes": [
    {
      "children": [
        1
      ],
      "matrix": [
        1,
        0,
        0,
        0,
        0,
        2.220446049250313e-16,
        -1,
        0,
        0,
        1,
        2.220446049250313e-16,
        0,
        0,
        0,
        0,
        1
      ],
      "name": "Sketchfab_model"
    },
    {
      "children": [
        2
      ],
      "matrix": [
        0.009999999776482582,
        0,
        0,
        0,
        0,
        0,
        0.009999999776482582,
        0,
        0,
        -0.009999999776482582,
        0,
        0,
        0,
        0,
        0,
        1
      ],
      "name": "be9210d376244066bed9d265a7a3a60e.fbx"
    },
    {
      "children": [
        3
      ],
      "name": "RootNode"
    },
    {
      "children": [
        4
      ],
      "matrix": [
        0.000007625885496706934,
        -39.16591644287035,
        -3.936927827397437e-14,
        0,
        39.16591644287035,
        0.000007625885496706934,
        -4.6704884389250017e-7,
        0,
        6.288413457650023e-7,
        6.943256277041852e-14,
        52.73355865478515,
        0,
        0,
        7.935468673706055,
        18.101566314697266,
        1
      ],
      "name": "React-Logo"
    },
    {
      "mesh": 0,
      "name": "React-Logo_Material.002_0"
    }
  ],
  "scene": 0,
  "scenes": [
    {
      "name": "Sketchfab_Scene",
      "nodes": [
        0
      ]
    }
  ]
}
